<svg width="48" height="48" viewBox="0 0 48 48" fill="none" xmlns="http://www.w3.org/2000/svg">
<rect width="48" height="48" rx="16" fill="#1E293B"/>
<path d="M24.83 14.1799C24.5694 14.061 24.2864 13.9995 24 13.9995C23.7136 13.9995 23.4306 14.061 23.17 14.1799L14.6 18.0799C14.4225 18.1581 14.2717 18.2863 14.1658 18.4487C14.0598 18.6112 14.0035 18.8009 14.0035 18.9949C14.0035 19.1888 14.0598 19.3786 14.1658 19.541C14.2717 19.7035 14.4225 19.8316 14.6 19.9099L23.18 23.8199C23.4406 23.9387 23.7236 24.0002 24.01 24.0002C24.2964 24.0002 24.5794 23.9387 24.84 23.8199L33.42 19.9199C33.5975 19.8416 33.7483 19.7135 33.8542 19.551C33.9602 19.3886 34.0165 19.1988 34.0165 19.0049C34.0165 18.8109 33.9602 18.6212 33.8542 18.4587C33.7483 18.2963 33.5975 18.1681 33.42 18.0899L24.83 14.1799Z" stroke="white" stroke-width="2" stroke-linecap="round" stroke-linejoin="round"/>
<path d="M14 24C13.9995 24.1913 14.0539 24.3787 14.1567 24.5399C14.2595 24.7012 14.4064 24.8297 14.58 24.91L23.18 28.82C23.4392 28.9374 23.7205 28.9981 24.005 28.9981C24.2895 28.9981 24.5708 28.9374 24.83 28.82L33.41 24.92C33.587 24.8404 33.737 24.7111 33.8418 24.5477C33.9466 24.3844 34.0015 24.1941 34 24" stroke="white" stroke-width="2" stroke-linecap="round" stroke-linejoin="round"/>
<path d="M14 29C13.9995 29.1913 14.0539 29.3787 14.1567 29.5399C14.2595 29.7012 14.4064 29.8297 14.58 29.91L23.18 33.82C23.4392 33.9374 23.7205 33.9981 24.005 33.9981C24.2895 33.9981 24.5708 33.9374 24.83 33.82L33.41 29.92C33.587 29.8404 33.737 29.7111 33.8418 29.5477C33.9466 29.3844 34.0015 29.1941 34 29" stroke="white" stroke-width="2" stroke-linecap="round" stroke-linejoin="round"/>
</svg>
