<svg width="73" height="79" viewBox="0 0 73 79" fill="none" xmlns="http://www.w3.org/2000/svg">
<rect x="12" y="9" width="48" height="48" rx="16" fill="#EA580C"/>
<g filter="url(#filter0_dd_3_8786)">
<rect x="12" y="9" width="48" height="48" rx="16" fill="white" fill-opacity="0.01" shape-rendering="crispEdges"/>
</g>
<path d="M32 43C32.5523 43 33 42.5523 33 42C33 41.4477 32.5523 41 32 41C31.4477 41 31 41.4477 31 42C31 42.5523 31.4477 43 32 43Z" stroke="white" stroke-width="2" stroke-linecap="round" stroke-linejoin="round"/>
<path d="M43 43C43.5523 43 44 42.5523 44 42C44 41.4477 43.5523 41 43 41C42.4477 41 42 41.4477 42 42C42 42.5523 42.4477 43 43 43Z" stroke="white" stroke-width="2" stroke-linecap="round" stroke-linejoin="round"/>
<path d="M26.05 23.0498H28.05L30.71 35.4698C30.8076 35.9247 31.0607 36.3313 31.4258 36.6197C31.7908 36.908 32.245 37.0602 32.71 37.0498H42.49C42.9452 37.0491 43.3865 36.8931 43.7411 36.6076C44.0956 36.3222 44.3422 35.9243 44.4401 35.4798L46.09 28.0498H29.12" stroke="white" stroke-width="2" stroke-linecap="round" stroke-linejoin="round"/>
<rect x="45" y="2" width="22" height="22" rx="11" fill="white"/>
<rect x="45" y="2" width="22" height="22" rx="11" stroke="#1E293B" stroke-width="2"/>
<g filter="url(#filter1_dd_3_8786)">
<rect x="44" y="1" width="24" height="24" rx="12" fill="white" fill-opacity="0.01" shape-rendering="crispEdges"/>
</g>
<path d="M53.8667 8.72727V16H51.8922V10.5455H51.8496L50.2587 11.4972V9.82102L52.0485 8.72727H53.8667ZM58.5275 16.1989C57.867 16.1965 57.2965 16.0438 56.8159 15.7408C56.3353 15.4377 55.9648 15.0009 55.7044 14.4304C55.444 13.8598 55.3149 13.1757 55.3173 12.3778C55.3197 11.5777 55.4499 10.8982 55.7079 10.3395C55.9683 9.78078 56.3377 9.35582 56.8159 9.06463C57.2965 8.77344 57.867 8.62784 58.5275 8.62784C59.188 8.62784 59.7586 8.77462 60.2392 9.06818C60.7198 9.35937 61.0903 9.78433 61.3507 10.343C61.6111 10.9018 61.7401 11.58 61.7377 12.3778C61.7377 13.1804 61.6075 13.867 61.3471 14.4375C61.0867 15.008 60.7162 15.4448 60.2356 15.7479C59.7574 16.0485 59.188 16.1989 58.5275 16.1989ZM58.5275 14.5938C58.8684 14.5938 59.1478 14.4162 59.3656 14.0611C59.5858 13.7036 59.6947 13.1425 59.6923 12.3778C59.6923 11.8783 59.6426 11.4699 59.5431 11.1527C59.4437 10.8355 59.3064 10.6011 59.1312 10.4496C58.956 10.2957 58.7548 10.2188 58.5275 10.2188C58.1866 10.2188 57.9084 10.3916 57.693 10.7372C57.4776 11.0829 57.3675 11.6297 57.3627 12.3778C57.3604 12.8868 57.4089 13.3059 57.5083 13.6349C57.6078 13.9616 57.7451 14.2031 57.9203 14.3594C58.0978 14.5156 58.3002 14.5938 58.5275 14.5938Z" fill="#EA580C"/>
<defs>
<filter id="filter0_dd_3_8786" x="0" y="7" width="72" height="72" filterUnits="userSpaceOnUse" color-interpolation-filters="sRGB">
<feFlood flood-opacity="0" result="BackgroundImageFix"/>
<feColorMatrix in="SourceAlpha" type="matrix" values="0 0 0 0 0 0 0 0 0 0 0 0 0 0 0 0 0 0 127 0" result="hardAlpha"/>
<feMorphology radius="4" operator="erode" in="SourceAlpha" result="effect1_dropShadow_3_8786"/>
<feOffset dy="4"/>
<feGaussianBlur stdDeviation="3"/>
<feComposite in2="hardAlpha" operator="out"/>
<feColorMatrix type="matrix" values="0 0 0 0 0.917647 0 0 0 0 0.345098 0 0 0 0 0.0470588 0 0 0 0.3 0"/>
<feBlend mode="normal" in2="BackgroundImageFix" result="effect1_dropShadow_3_8786"/>
<feColorMatrix in="SourceAlpha" type="matrix" values="0 0 0 0 0 0 0 0 0 0 0 0 0 0 0 0 0 0 127 0" result="hardAlpha"/>
<feMorphology radius="3" operator="erode" in="SourceAlpha" result="effect2_dropShadow_3_8786"/>
<feOffset dy="10"/>
<feGaussianBlur stdDeviation="7.5"/>
<feComposite in2="hardAlpha" operator="out"/>
<feColorMatrix type="matrix" values="0 0 0 0 0.917647 0 0 0 0 0.345098 0 0 0 0 0.0470588 0 0 0 0.3 0"/>
<feBlend mode="normal" in2="effect1_dropShadow_3_8786" result="effect2_dropShadow_3_8786"/>
<feBlend mode="normal" in="SourceGraphic" in2="effect2_dropShadow_3_8786" result="shape"/>
</filter>
<filter id="filter1_dd_3_8786" x="39" y="0" width="34" height="34" filterUnits="userSpaceOnUse" color-interpolation-filters="sRGB">
<feFlood flood-opacity="0" result="BackgroundImageFix"/>
<feColorMatrix in="SourceAlpha" type="matrix" values="0 0 0 0 0 0 0 0 0 0 0 0 0 0 0 0 0 0 127 0" result="hardAlpha"/>
<feMorphology radius="2" operator="erode" in="SourceAlpha" result="effect1_dropShadow_3_8786"/>
<feOffset dy="2"/>
<feGaussianBlur stdDeviation="2"/>
<feComposite in2="hardAlpha" operator="out"/>
<feColorMatrix type="matrix" values="0 0 0 0 0 0 0 0 0 0 0 0 0 0 0 0 0 0 0.1 0"/>
<feBlend mode="normal" in2="BackgroundImageFix" result="effect1_dropShadow_3_8786"/>
<feColorMatrix in="SourceAlpha" type="matrix" values="0 0 0 0 0 0 0 0 0 0 0 0 0 0 0 0 0 0 127 0" result="hardAlpha"/>
<feMorphology radius="1" operator="erode" in="SourceAlpha" result="effect2_dropShadow_3_8786"/>
<feOffset dy="4"/>
<feGaussianBlur stdDeviation="3"/>
<feComposite in2="hardAlpha" operator="out"/>
<feColorMatrix type="matrix" values="0 0 0 0 0 0 0 0 0 0 0 0 0 0 0 0 0 0 0.1 0"/>
<feBlend mode="normal" in2="effect1_dropShadow_3_8786" result="effect2_dropShadow_3_8786"/>
<feBlend mode="normal" in="SourceGraphic" in2="effect2_dropShadow_3_8786" result="shape"/>
</filter>
</defs>
</svg>
