<svg width="76" height="76" viewBox="0 0 76 76" fill="none" xmlns="http://www.w3.org/2000/svg">
<rect x="12" y="2" width="52" height="52" rx="16" fill="white" fill-opacity="0.95"/>
<g filter="url(#filter0_dd_126_2001)">
<rect x="12" y="2" width="52" height="52" rx="16" fill="white" fill-opacity="0.01" shape-rendering="crispEdges"/>
</g>
<path d="M36.8333 39.3519C37.188 39.5567 37.5904 39.6645 38 39.6645C38.4096 39.6645 38.812 39.5567 39.1667 39.3519L47.3333 34.6852C47.6877 34.4806 47.982 34.1864 48.1868 33.8322C48.3916 33.4779 48.4996 33.0761 48.5 32.6669V23.3335C48.4996 22.9244 48.3916 22.5225 48.1868 22.1682C47.982 21.814 47.6877 21.5198 47.3333 21.3152L39.1667 16.6485C38.812 16.4438 38.4096 16.3359 38 16.3359C37.5904 16.3359 37.188 16.4438 36.8333 16.6485L28.6667 21.3152C28.3123 21.5198 28.018 21.814 27.8132 22.1682C27.6084 22.5225 27.5004 22.9244 27.5 23.3335V32.6669C27.5004 33.0761 27.6084 33.4779 27.8132 33.8322C28.018 34.1864 28.3123 34.4806 28.6667 34.6852L36.8333 39.3519Z" stroke="#EA580C" stroke-width="2.33333" stroke-linecap="round" stroke-linejoin="round"/>
<path d="M38 39.6667V28" stroke="#EA580C" stroke-width="2.33333" stroke-linecap="round" stroke-linejoin="round"/>
<path d="M27.8383 22.1665L38 27.9998L48.1617 22.1665" stroke="#EA580C" stroke-width="2.33333" stroke-linecap="round" stroke-linejoin="round"/>
<path d="M32.75 18.9814L43.25 24.9898" stroke="#EA580C" stroke-width="2.33333" stroke-linecap="round" stroke-linejoin="round"/>
<rect x="50.5" y="40.5" width="17" height="17" rx="8.5" fill="white"/>
<rect x="50.5" y="40.5" width="17" height="17" rx="8.5" stroke="#FFEDD5"/>
<path d="M55.5 49H62.5" stroke="#EA580C" stroke-linecap="round" stroke-linejoin="round"/>
<path d="M59 45.5V52.5" stroke="#EA580C" stroke-linecap="round" stroke-linejoin="round"/>
<defs>
<filter id="filter0_dd_126_2001" x="0" y="0" width="76" height="76" filterUnits="userSpaceOnUse" color-interpolation-filters="sRGB">
<feFlood flood-opacity="0" result="BackgroundImageFix"/>
<feColorMatrix in="SourceAlpha" type="matrix" values="0 0 0 0 0 0 0 0 0 0 0 0 0 0 0 0 0 0 127 0" result="hardAlpha"/>
<feMorphology radius="4" operator="erode" in="SourceAlpha" result="effect1_dropShadow_126_2001"/>
<feOffset dy="4"/>
<feGaussianBlur stdDeviation="3"/>
<feComposite in2="hardAlpha" operator="out"/>
<feColorMatrix type="matrix" values="0 0 0 0 0 0 0 0 0 0 0 0 0 0 0 0 0 0 0.1 0"/>
<feBlend mode="normal" in2="BackgroundImageFix" result="effect1_dropShadow_126_2001"/>
<feColorMatrix in="SourceAlpha" type="matrix" values="0 0 0 0 0 0 0 0 0 0 0 0 0 0 0 0 0 0 127 0" result="hardAlpha"/>
<feMorphology radius="3" operator="erode" in="SourceAlpha" result="effect2_dropShadow_126_2001"/>
<feOffset dy="10"/>
<feGaussianBlur stdDeviation="7.5"/>
<feComposite in2="hardAlpha" operator="out"/>
<feColorMatrix type="matrix" values="0 0 0 0 0 0 0 0 0 0 0 0 0 0 0 0 0 0 0.1 0"/>
<feBlend mode="normal" in2="effect1_dropShadow_126_2001" result="effect2_dropShadow_126_2001"/>
<feBlend mode="normal" in="SourceGraphic" in2="effect2_dropShadow_126_2001" result="shape"/>
</filter>
</defs>
</svg>
