<svg width="48" height="37" viewBox="0 0 48 37" fill="none" xmlns="http://www.w3.org/2000/svg">
<g filter="url(#filter0_i_1_1020)">
<rect x="6.35906e-07" width="47.4592" height="36.4487" rx="7.59348" fill="white"/>
<rect x="0.379675" y="0.379674" width="46.6999" height="35.6894" rx="7.2138" stroke="#EFF0F6" stroke-width="0.759348"/>
<g clip-path="url(#clip0_1_1020)">
<path d="M22.602 24.9901C19.3558 24.4092 16.8955 21.6072 16.8955 18.2243C16.8955 14.4655 19.9709 11.3901 23.7296 11.3901C27.4884 11.3901 30.5638 14.4655 30.5638 18.2243C30.5638 21.6072 28.1035 24.4092 24.8573 24.9901L24.4814 24.6825L22.9779 24.6825L22.602 24.9901Z" fill="url(#paint0_linear_1_1020)"/>
<path d="M26.395 20.138L26.7025 18.2245L24.8915 18.2245L24.8915 16.8918C24.8915 16.3451 25.0965 15.9351 25.9166 15.9351L26.805 15.9351L26.805 14.1923C26.3266 14.124 25.7799 14.0557 25.3015 14.0557C23.7297 14.0557 22.6362 15.0124 22.6362 16.721L22.6362 18.2245L20.9277 18.2245L20.9277 20.138L22.6362 20.138L22.6362 24.9561C23.0121 25.0244 23.388 25.0586 23.7638 25.0586C24.1397 25.0586 24.5156 25.0244 24.8915 24.9561L24.8915 20.138L26.395 20.138Z" fill="white"/>
</g>
</g>
<defs>
<filter id="filter0_i_1_1020" x="6.35906e-07" y="-2.27804" width="47.4592" height="38.7268" filterUnits="userSpaceOnUse" color-interpolation-filters="sRGB">
<feFlood flood-opacity="0" result="BackgroundImageFix"/>
<feBlend mode="normal" in="SourceGraphic" in2="BackgroundImageFix" result="shape"/>
<feColorMatrix in="SourceAlpha" type="matrix" values="0 0 0 0 0 0 0 0 0 0 0 0 0 0 0 0 0 0 127 0" result="hardAlpha"/>
<feOffset dy="-2.27804"/>
<feGaussianBlur stdDeviation="2.27804"/>
<feComposite in2="hardAlpha" operator="arithmetic" k2="-1" k3="1"/>
<feColorMatrix type="matrix" values="0 0 0 0 0.954949 0 0 0 0 0.961068 0 0 0 0 0.979426 0 0 0 0.6 0"/>
<feBlend mode="normal" in2="shape" result="effect1_innerShadow_1_1020"/>
</filter>
<linearGradient id="paint0_linear_1_1020" x1="23.73" y1="24.5831" x2="23.73" y2="11.3876" gradientUnits="userSpaceOnUse">
<stop stop-color="#0062E0"/>
<stop offset="1" stop-color="#19AFFF"/>
</linearGradient>
<clipPath id="clip0_1_1020">
<rect width="13.6683" height="13.6683" fill="white" transform="translate(16.8955 11.3901)"/>
</clipPath>
</defs>
</svg>
